# File created by Blade
# Date/Time:  Wed Jan 21 18:40:08 2015
# Frame Rate: 120.000 fps
#------------------------------------------------------
:FULLY-SPECIFIED
:DEGREES
4284
root 2.699986 27.666804 -11.293378 118.110936 -38.589403 8.421395
RightUpLeg -155.227973 -21.670811 14.397778
RightLeg 0.039745 -0.000000 -0.000000
RightFoot 18.122780 2.761137 36.009763
RightToeBase 21.154144 -0.000000 -0.000000
LeftUpLeg -114.149286 6.255029 -40.142959
LeftLeg -3.350086 -0.000000 0.000000
LeftFoot -1.766190 2.860615 -14.193259
LeftToeBase 9.589595 -0.000000 -0.000000
Spine 7.108277 -25.422159 20.364620
RightShoulder -12.062200 46.524027 -45.563650
RightArm 34.411878 0.698309 58.308602
RightForeArm 10.642229 -0.000000 55.264835
RightHand 14.790873 -0.000000 -20.142449
RightHandThumb1 -24.326973 -0.000000 -32.862282
LeftShoulder 6.394180 -16.571929 42.752610
LeftArm 83.373805 -9.611366 -69.439927
LeftForeArm -39.048651 -0.000000 59.758927
LeftHand 2.386413 -0.000000 -34.092523
LeftHandThumb1 -26.253704 0.000000 33.147579
Head -19.592389 7.843786 16.348266
4285
root 2.705541 27.664234 -11.345144 118.217063 -38.465799 8.439236
RightUpLeg -155.320228 -21.747069 14.452844
RightLeg -0.026052 -0.000000 0.000000
RightFoot 17.822592 2.583735 36.239511
RightToeBase 21.518383 -0.000000 -0.000000
LeftUpLeg -114.391923 6.287653 -39.890523
LeftLeg -3.186066 -0.000000 0.000000
LeftFoot -2.417669 2.865468 -13.874542
LeftToeBase 9.811797 -0.000000 -0.000000
Spine 6.838947 -25.625319 20.477608
RightShoulder -11.395223 46.779184 -45.086838
RightArm 34.438873 0.650292 58.141374
RightForeArm 10.526509 -0.000000 54.708858
RightHand 15.288543 -0.000000 -20.330545
RightHandThumb1 -24.326973 -0.000000 -32.862282
LeftShoulder 6.421881 -15.952786 43.017206
LeftArm 83.852678 -10.326533 -69.573211
LeftForeArm -39.114569 -0.000000 60.668456
LeftHand 1.846502 -0.000000 -34.721465
LeftHandThumb1 -26.253704 0.000000 33.147579
Head -17.919709 7.828574 16.841892
4286
root 2.709498 27.660643 -11.400996 118.298921 -38.308294 8.477772
RightUpLeg -155.425216 -21.781887 14.540936
RightLeg -0.010935 -0.000000 0.000000
RightFoot 17.412646 2.499862 36.385360
RightToeBase 21.713567 -0.000000 -0.000000
LeftUpLeg -114.638188 6.354921 -39.569736
LeftLeg -3.022292 -0.000000 0.000000
LeftFoot -3.120187 3.014199 -13.552868
LeftToeBase 9.653346 -0.000000 -0.000000
Spine 6.527167 -25.789653 20.627912
RightShoulder -10.643004 47.006206 -44.529134
RightArm 34.453747 0.597783 57.917766
RightForeArm 10.443923 -0.000000 54.143050
RightHand 15.741974 -0.000000 -20.596343
RightHandThumb1 -24.326973 -0.000000 -32.862282
LeftShoulder 6.441607 -15.324005 43.315692
LeftArm 84.263776 -10.983780 -69.832599
LeftForeArm -39.857017 -0.000000 61.402566
LeftHand 1.122233 -0.000000 -35.838269
LeftHandThumb1 -26.253704 0.000000 33.147579
Head -16.150288 7.747742 17.359073
4287
root 2.713342 27.660314 -11.457486 118.346386 -38.192447 8.507054
RightUpLeg -155.521238 -21.792657 14.602774
RightLeg -0.000808 -0.000000 0.000000
RightFoot 17.189935 2.421349 36.600927
RightToeBase 21.957894 -0.000000 -0.000000
LeftUpLeg -114.822964 6.404905 -39.343637
LeftLeg -2.897822 -0.000000 0.000000
LeftFoot -3.901913 3.222765 -13.287600
LeftToeBase 9.526539 -0.000000 -0.000000
Spine 6.237095 -25.895887 20.714309
RightShoulder -9.848661 47.054183 -43.832624
RightArm 34.653960 0.620533 57.622617
RightForeArm 10.250732 -0.000000 53.557097
RightHand 16.040806 -0.000000 -21.009634
RightHandThumb1 -24.326973 -0.000000 -32.862282
LeftShoulder 6.520836 -14.733482 43.643785
LeftArm 84.735697 -11.676773 -70.066915
LeftForeArm -40.633575 -0.000000 62.042847
LeftHand 1.062320 -0.000000 -36.477375
LeftHandThumb1 -26.253704 0.000000 33.147579
Head -14.385202 7.615995 17.978578
4288
root 2.717055 27.664603 -11.515109 118.385064 -38.006775 8.559296
RightUpLeg -155.779039 -21.435181 14.936973
RightLeg 0.177200 -0.000000 -0.000000
RightFoot 17.249053 2.751689 37.011683
RightToeBase 22.200501 -0.000000 -0.000000
LeftUpLeg -115.038846 6.415763 -39.129413
LeftLeg -2.746884 -0.000000 0.000000
LeftFoot -4.668998 3.470028 -13.002146
LeftToeBase 9.543329 -0.000000 -0.000000
Spine 5.931564 -25.955626 20.884191
RightShoulder -9.030793 47.083718 -43.116321
RightArm 34.835793 0.693823 57.333144
RightForeArm 10.272068 -0.000000 53.031125
RightHand 16.367716 0.000000 -21.341686
RightHandThumb1 -24.326973 -0.000000 -32.862282
LeftShoulder 6.503487 -13.964561 43.965961
LeftArm 85.507834 -12.373685 -69.978975
LeftForeArm -40.547241 -0.000000 62.332894
LeftHand 3.269838 -0.000000 -35.887188
LeftHandThumb1 -26.253704 0.000000 33.147579
Head -12.658836 7.485940 18.554858
4289
root 2.718776 27.666817 -11.574452 118.389262 -37.821176 8.615148
RightUpLeg -156.034773 -21.090774 15.264056
RightLeg 0.386968 -0.000000 -0.000000
RightFoot 17.393249 3.289784 37.166161
RightToeBase 22.253676 -0.000000 -0.000000
LeftUpLeg -115.215067 6.464850 -38.886204
LeftLeg -2.618456 -0.000000 0.000000
LeftFoot -5.336214 3.925799 -12.663278
LeftToeBase 9.363514 -0.000000 -0.000000
Spine 5.654543 -25.940618 21.032209
RightShoulder -8.268286 47.048428 -42.342529
RightArm 35.076012 0.747072 56.987301
RightForeArm 10.395506 -0.000000 52.522750
RightHand 16.753487 0.000000 -21.566106
RightHandThumb1 -24.326973 -0.000000 -32.862282
LeftShoulder 6.557075 -13.369875 44.286737
LeftArm 85.976964 -12.955988 -70.067092
LeftForeArm -41.016729 -0.000000 62.887932
LeftHand 4.511335 -0.000000 -36.219738
LeftHandThumb1 -26.253704 0.000000 33.147579
Head -11.104968 7.323824 19.225990
4290
root 2.718940 27.673483 -11.634783 118.358035 -37.665661 8.662390
RightUpLeg -156.203936 -20.837639 15.502302
RightLeg 0.511340 -0.000000 -0.000000
RightFoot 17.624015 3.792906 37.203123
RightToeBase 22.336402 -0.000000 -0.000000
LeftUpLeg -115.342791 6.484960 -38.754510
LeftLeg -2.530568 -0.000000 0.000000
LeftFoot -5.970157 4.396436 -12.555152
LeftToeBase 9.521091 -0.000000 -0.000000
Spine 5.395689 -25.877068 21.135137
RightShoulder -7.538192 47.151815 -41.618108
RightArm 35.120178 0.745845 56.680142
RightForeArm 10.649194 -0.000000 52.022280
RightHand 17.165898 -0.000000 -21.511139
RightHandThumb1 -24.326973 -0.000000 -32.862282
LeftShoulder 6.704002 -12.984128 44.740184
LeftArm 86.755022 -14.129014 -73.833328
LeftForeArm -48.616407 0.000000 65.285356
LeftHand -10.087996 -0.000000 -40.925683
LeftHandThumb1 -26.253704 0.000000 33.147579
Head -9.602800 7.153339 19.763678
4291
root 2.721015 27.675507 -11.698882 118.337583 -37.571655 8.690561
RightUpLeg -156.261264 -20.858844 15.515444
RightLeg 0.517908 -0.000000 -0.000000
RightFoot 17.672717 3.906804 37.435750
RightToeBase 22.511748 -0.000000 -0.000000
LeftUpLeg -115.448524 6.456360 -38.798506
LeftLeg -2.503732 -0.000000 0.000000
LeftFoot -6.490942 4.804787 -12.691926
LeftToeBase 9.518187 -0.000000 -0.000000
Spine 5.055304 -25.759248 21.187066
RightShoulder -6.734021 47.019572 -40.766684
RightArm 35.362187 0.795038 56.329272
RightForeArm 10.943005 -0.000000 51.381614
RightHand 17.620244 -0.000000 -21.678020
RightHandThumb1 -24.326973 -0.000000 -32.862282
LeftShoulder 6.822676 -12.456889 45.088161
LeftArm 87.125777 -14.600659 -73.579279
LeftForeArm -49.103150 0.000000 65.932861
LeftHand -8.793669 -0.000000 -40.629712
LeftHandThumb1 -26.253704 0.000000 33.147579
Head -7.930950 6.839404 20.477363
4292
root 2.724508 27.671526 -11.766839 118.259515 -37.453378 8.766068
RightUpLeg -156.443372 -21.039902 15.452446
RightLeg 0.914889 -0.000000 -0.000000
RightFoot 17.379134 4.083676 37.334399
RightToeBase 22.569766 -0.000000 -0.000000
LeftUpLeg -115.544428 6.390916 -38.848423
LeftLeg -2.467412 -0.000000 0.000000
LeftFoot -6.979487 5.212562 -12.668497
LeftToeBase 9.894766 -0.000000 -0.000000
Spine 4.602529 -25.658067 21.304579
RightShoulder -5.679456 46.935625 -39.746234
RightArm 35.512514 0.806986 55.896062
RightForeArm 11.388729 -0.000000 50.622140
RightHand 18.128838 -0.000000 -21.849037
RightHandThumb1 -24.326973 -0.000000 -32.862282
LeftShoulder 7.114388 -11.915399 45.392079
LeftArm 87.294907 -15.082406 -73.249862
LeftForeArm -49.471411 -0.000000 66.574651
LeftHand -6.935348 -0.000000 -40.466853
LeftHandThumb1 -26.253704 0.000000 33.147579
Head -5.925015 6.527201 21.044350
4293
root 2.730103 27.669324 -11.835409 118.230074 -37.396102 8.800886
RightUpLeg -156.517451 -21.268594 15.324360
RightLeg 0.975890 -0.000000 -0.000000
RightFoot 17.452003 4.093700 37.595591
RightToeBase 22.941902 -0.000000 -0.000000
LeftUpLeg -115.634269 6.311610 -38.962660
LeftLeg -2.483440 -0.000000 0.000000
LeftFoot -7.417273 5.573395 -12.787000
LeftToeBase 10.070733 -0.000000 -0.000000
Spine 4.087778 -25.494405 21.381875
RightShoulder -4.629333 46.889195 -38.794323
RightArm 35.561121 0.794037 55.519044
RightForeArm 11.826151 -0.000000 49.784512
RightHand 18.741613 -0.000000 -22.010271
RightHandThumb1 -24.326973 -0.000000 -32.862282
LeftShoulder 7.406692 -11.318322 45.593452
LeftArm 86.877019 -14.986863 -69.443382
LeftForeArm -45.505140 -0.000000 65.312634
LeftHand 9.012581 -0.000000 -37.315971
LeftHandThumb1 -26.253704 0.000000 33.147579
Head -4.014159 6.168109 21.517007
4294
root 2.737558 27.667539 -11.902696 118.174772 -37.334038 8.833611
RightUpLeg -156.608858 -21.490362 15.178775
RightLeg 1.144950 -0.000000 -0.000000
RightFoot 17.577917 4.126834 37.694324
RightToeBase 23.287259 -0.000000 -0.000000
LeftUpLeg -115.695386 6.258807 -39.046175
LeftLeg -2.518941 -0.000000 0.000000
LeftFoot -7.772376 5.916955 -12.646337
LeftToeBase 10.029663 -0.000000 -0.000000
Spine 3.568057 -25.331866 21.518277
RightShoulder -3.608308 46.803305 -37.961445
RightArm 35.680368 0.876719 55.315084
RightForeArm 12.249317 -0.000000 48.837922
RightHand 19.365893 -0.000000 -22.013586
RightHandThumb1 -24.326973 -0.000000 -32.862282
LeftShoulder 7.665857 -10.805640 45.787056
LeftArm 86.860641 -15.306770 -68.877612
LeftForeArm -46.074537 -0.000000 65.522649
LeftHand 10.825868 -0.000000 -37.901594
LeftHandThumb1 -26.253704 0.000000 33.147579
Head -2.219653 5.732052 21.770863
4295
root 2.756759 27.658326 -11.952193 117.764900 -37.337803 9.133782
RightUpLeg -156.561804 -22.136341 15.005703
RightLeg 1.314921 -0.000000 -0.000000
RightFoot 17.626394 4.269143 37.797418
RightToeBase 23.769491 -0.000000 -0.000000
LeftUpLeg -115.418716 6.069699 -39.170738
LeftLeg -2.614076 -0.000000 0.000000
LeftFoot -8.098028 6.088722 -12.606775
LeftToeBase 10.353502 -0.000000 -0.000000
Spine 3.137123 -25.416649 21.786225
RightShoulder -2.628895 46.804348 -37.304242
RightArm 35.716665 0.941006 55.118897
RightForeArm 12.574085 -0.000000 47.909779
RightHand 19.666772 0.000000 -22.023527
RightHandThumb1 -24.326973 -0.000000 -32.862282
LeftShoulder 7.895158 -10.340108 45.845731
LeftArm 86.720301 -15.547161 -68.313351
LeftForeArm -47.000923 0.000000 65.544588
LeftHand 11.894640 -0.000000 -38.837155
LeftHandThumb1 -26.253704 0.000000 33.147579
Head -0.599766 5.339251 21.653902
4296
root 2.773975 27.654578 -12.005418 117.382401 -37.223415 9.350280
RightUpLeg -156.605373 -22.325168 15.024063
RightLeg 1.697150 -0.000000 -0.000000
RightFoot 17.857546 4.589652 38.059956
RightToeBase 24.171306 -0.000000 -0.000000
LeftUpLeg -115.230230 5.993482 -39.191212
LeftLeg -2.669744 -0.000000 0.000000
LeftFoot -8.446339 6.282036 -12.526232
LeftToeBase 10.341789 -0.000000 -0.000000
Spine 2.825163 -25.319508 22.092493
RightShoulder -1.877208 46.640659 -36.775060
RightArm 35.997291 1.069610 54.967449
RightForeArm 12.781801 0.000000 46.833538
RightHand 20.176881 -0.000000 -21.911680
RightHandThumb1 -24.326973 -0.000000 -32.862282
LeftShoulder 8.048874 -10.019851 46.023485
LeftArm 86.368200 -15.586785 -67.975335
LeftForeArm -47.330686 -0.000000 65.492152
LeftHand 13.152038 -0.000000 -39.684105
LeftHandThumb1 -26.253704 0.000000 33.147579
Head 0.582048 4.956608 21.464066
